<svg xmlns="http://www.w3.org/2000/svg" viewBox="0 0 200 200" xmlns:xlink="http://www.w3.org/1999/xlink">
  <defs>
    <linearGradient id="a" x1="0%" x2="100%" y1="0%" y2="100%">
      <stop offset="0%" stop-color="#fff"/>
      <stop offset="45%" stop-color="#e0e0e0"/>
      <stop offset="55%" stop-color="#aaa"/>
      <stop offset="100%" stop-color="#666"/>
    </linearGradient>
  </defs>
  <rect width="200" height="200" fill="#09090b" rx="40" ry="40"/>
  <g fill="none" stroke="url(#a)" stroke-linecap="round" stroke-linejoin="round" stroke-width="3" transform="matrix(3.5 0 0 3.5 15 15)">
    <path d="M11.999 41a32.85 32.85 0 0 0 16.68-4.52c.665-.39.61-1.348-.081-1.691L25 33c3.303 0 10-1.337 10-1.337 7.147-6.948 10.78-16.97 9.848-26.842a1.85 1.85 0 0 0-1.67-1.67A33.2 33.2 0 0 0 28 5.25S26.348 9.142 26 11l-2.024-2.817a.98.98 0 0 0-1.309-.271C13.264 13.687 7 23.36 7 36.5"/>
    <path d="M3 45c5-14.5 21-27 34-34"/>
  </g>
</svg>
